<svg width="158" height="47" xmlns="http://www.w3.org/2000/svg" xmlns:xlink="http://www.w3.org/1999/xlink" xml:space="preserve" overflow="hidden"><defs><clipPath id="clip0"><rect x="977" y="195" width="157" height="46"/></clipPath><clipPath id="clip1"><rect x="977" y="195" width="157" height="46"/></clipPath><clipPath id="clip2"><rect x="977" y="195" width="157" height="46"/></clipPath></defs><g transform="translate(-976 -194)"><g><g clip-path="url(#clip0)"><g clip-path="url(#clip1)"><g clip-path="url(#clip2)"><path d="M0.220681 24.3612 107.285 24.3612 107.285 37.588 0.220685 37.588Z" stroke="#273777" stroke-width="0.341053" stroke-linecap="butt" stroke-linejoin="miter" stroke-miterlimit="3.86" stroke-opacity="1" fill="#FFFFFF" fill-rule="nonzero" fill-opacity="1" transform="matrix(1.00461 0 0 1 977.091 195)"/><path d="M19.6607 28.502C19.7429 27.9844 20.0619 27.852 20.5715 27.852 20.722 27.852 20.8684 27.87 21.0189 27.8801L21.1774 27.1358C20.9733 27.0854 20.7653 27.0539 20.5555 27.0415 19.8854 27.0415 19.0448 27.3143 18.796 28.3515L18.5954 29.2563 17.6886 29.2563 17.5562 29.8782 18.4811 29.8782 17.6064 33.9909 18.5011 33.9909 19.3758 29.8782 20.4632 29.8782 20.5956 29.2563 19.5082 29.2563Z" fill="#273777" fill-rule="nonzero" fill-opacity="1" transform="matrix(1.00461 0 0 1 977.091 194.996)"/><path d="M25.3021 27.1799 24.4435 27.1799 24.2388 28.1409 25.0975 28.1409 25.3021 27.1799Z" fill="#273777" fill-rule="nonzero" fill-opacity="1" transform="matrix(1.00461 0 0 1 977.091 195)"/><path d="M24.1847 31.6979C24.1016 32.0873 23.9616 32.4624 23.7694 32.8113 23.5096 33.2272 23.0562 33.4828 22.5657 33.4894 21.707 33.4894 21.6468 32.8875 21.8214 32.065L22.4232 29.2563 21.5265 29.2563 20.8524 32.4241C20.6518 33.377 21.053 34.1314 22.0461 34.1314 22.7452 34.1464 23.4121 33.8367 23.8516 33.2928L23.8697 33.2928 23.7212 33.9909 24.5979 33.9909 25.601 29.2563 24.7043 29.2563Z" fill="#273777" fill-rule="nonzero" fill-opacity="1" transform="matrix(1.00461 0 0 1 977.091 194.996)"/><path d="M23.5286 27.1799 22.672 27.1799 22.4674 28.1409 23.324 28.1409 23.5286 27.1799Z" fill="#273777" fill-rule="nonzero" fill-opacity="1" transform="matrix(1.00461 0 0 1 977.091 195)"/><path d="M28.0305 30.1711 28.0125 30.1711 28.2131 29.2563 27.3183 29.2563 26.3152 33.9909 27.21 33.9909 27.7095 31.6437C27.9222 30.6406 28.2492 30.0387 29.3887 30.0026 29.5163 29.9938 29.6443 30.0094 29.7659 30.0488L29.9464 29.2001C29.8421 29.2001 29.7458 29.2001 29.6375 29.2001 28.9548 29.1694 28.3208 29.5526 28.0305 30.1711Z" fill="#273777" fill-rule="nonzero" fill-opacity="1" transform="matrix(1.00461 0 0 1 977.091 194.996)"/><path d="M37.1126 32.5164 37.0945 32.5344 34.5005 27.1799 32.3318 27.1799 32.3318 33.9869 33.7 33.9869 33.7 28.3475 33.7181 28.3295 36.4064 33.9869 38.4808 33.9869 38.4808 27.1799 37.1126 27.1799 37.1126 32.5164Z" fill="#273777" fill-rule="nonzero" fill-opacity="1" transform="matrix(1.00461 0 0 1 977.091 195)"/><path d="M43.9657 31.096C43.936 30.8017 43.8558 30.5146 43.729 30.2474 43.3278 29.4168 42.5975 29.1159 41.7108 29.1159 40.2683 29.1159 39.4377 30.2093 39.4377 31.6337 39.4377 33.2185 40.0878 34.1334 41.7108 34.1334 42.8142 34.1334 43.729 33.7462 43.8514 32.5766L42.5774 32.5766C42.445 33.0099 42.2003 33.1884 41.7108 33.1884 40.9845 33.1884 40.9083 32.6127 40.9083 32.0008L44.0099 32.0008C44.0143 31.6987 43.9994 31.3963 43.9657 31.096ZM40.9003 31.0579C40.9183 30.5403 41.0608 30.0548 41.7027 30.0548 42.3909 30.0548 42.5333 30.5363 42.5333 31.0579Z" fill="#273777" fill-rule="nonzero" fill-opacity="1" transform="matrix(1.00461 0 0 1 977.091 194.996)"/><path d="M47.4505 29.1159C46.9441 29.1329 46.4757 29.3879 46.1866 29.804L46.1685 29.804 46.1404 29.2563 44.708 29.2563C44.7261 29.5673 44.7562 29.8883 44.7562 30.1992L44.7562 35.8005 46.1705 35.8005 46.1705 33.3209 46.1886 33.3209C46.4753 33.8433 47.036 34.1552 47.631 34.1233 49.0173 34.1233 49.6673 32.8313 49.6673 31.6156 49.6673 30.3517 48.923 29.1159 47.4505 29.1159ZM47.1857 33.1905C46.4213 33.1905 46.1665 32.2756 46.1665 31.6256 46.1665 30.9756 46.4213 30.0608 47.1857 30.0608 48.0905 30.0608 48.2048 30.8994 48.2048 31.6256 48.2048 32.3519 48.0925 33.1905 47.1877 33.1905Z" fill="#273777" fill-rule="nonzero" fill-opacity="1" transform="matrix(1.00461 0 0 1 977.091 194.996)"/><path d="M53.5393 29.1159C52.8231 29.1159 52.3797 29.3988 52.0868 29.8321L52.0687 29.814 52.0687 27.1819 50.6644 27.1819 50.6644 33.9909 52.0788 33.9909 52.0788 31.1421C52.0968 30.454 52.48 30.0568 52.9274 30.0568 53.6255 30.0568 53.766 30.6326 53.776 31.1421L53.776 33.9909 55.1904 33.9909 55.1904 30.9074C55.1888 30.6532 55.1571 30.3998 55.0961 30.1531 54.9256 29.465 54.0107 29.1159 53.5393 29.1159Z" fill="#273777" fill-rule="nonzero" fill-opacity="1" transform="matrix(1.00461 0 0 1 977.091 194.996)"/><path d="M57.6379 30.115 57.6199 30.115 57.5918 29.2563 56.2998 29.2563C56.3179 29.6054 56.3459 30.0006 56.3459 30.1992L56.3459 33.9909 57.7503 33.9909 57.7503 31.6437C57.74 31.3526 57.8048 31.0637 57.9389 30.8051 58.1136 30.6031 58.3608 30.4777 58.627 30.456L59.2389 30.456 59.2389 29.2021C58.5447 29.1821 57.9409 29.3707 57.6379 30.115Z" fill="#273777" fill-rule="nonzero" fill-opacity="1" transform="matrix(1.00461 0 0 1 977.091 194.996)"/><path d="M62.3505 29.1159C60.8037 29.1159 59.8788 30.135 59.8788 31.6236 59.8788 33.1122 60.8037 34.1314 62.3505 34.1314 63.8973 34.1314 64.8201 33.1122 64.8201 31.6236 64.8201 30.135 63.8973 29.1159 62.3505 29.1159ZM62.3505 33.1905C61.4818 33.1905 61.3474 32.388 61.3474 31.6256 61.3474 30.8633 61.4898 30.0608 62.3505 30.0608 63.2111 30.0608 63.3536 30.8633 63.3536 31.6256 63.3536 32.388 63.2171 33.1905 62.3505 33.1905Z" fill="#273777" fill-rule="nonzero" fill-opacity="1" transform="matrix(1.00461 0 0 1 977.091 194.996)"/><path d="M65.8272 27.1799 67.2416 27.1799 67.2416 33.9889 65.8272 33.9889Z" fill="#273777" fill-rule="nonzero" fill-opacity="1" transform="matrix(1.00461 0 0 1 977.091 195)"/><path d="M70.7263 29.1159C69.1796 29.1159 68.2547 30.135 68.2547 31.6236 68.2547 33.1122 69.1796 34.1314 70.7263 34.1314 72.2731 34.1314 73.198 33.1122 73.198 31.6236 73.198 30.135 72.2731 29.1159 70.7263 29.1159ZM70.7263 33.1905C69.8597 33.1905 69.7232 32.388 69.7232 31.6256 69.7232 30.8633 69.8657 30.0608 70.7263 30.0608 71.587 30.0608 71.7294 30.8633 71.7294 31.6256 71.7294 32.388 71.595 33.1905 70.7263 33.1905Z" fill="#273777" fill-rule="nonzero" fill-opacity="1" transform="matrix(1.00461 0 0 1 977.091 194.996)"/><path d="M77.3628 29.804 77.3448 29.804C77.1181 29.3225 76.7128 29.1159 76.0809 29.1159 74.7608 29.1159 74.0747 30.3316 74.0747 31.5394 74.0747 32.6889 74.7347 33.8966 76.0167 33.8966 76.5437 33.9301 77.0495 33.6832 77.3468 33.2466L77.3648 33.2466C77.421 33.9348 77.4591 34.9158 76.3838 34.9158 75.9966 34.9158 75.6194 34.7553 75.6014 34.33L74.2612 34.33C74.2893 35.6039 75.4108 35.8587 76.4681 35.8587 78.5425 35.8768 78.7872 34.671 78.7872 33.5676L78.7872 29.2563 77.3728 29.2563ZM76.448 32.9537C75.6756 32.9537 75.5332 32.1613 75.5332 31.5494 75.5332 30.8512 75.6756 30.0588 76.448 30.0588 77.2204 30.0588 77.3628 30.8512 77.3628 31.5494 77.3628 32.1613 77.2204 32.9537 76.448 32.9537Z" fill="#273777" fill-rule="nonzero" fill-opacity="1" transform="matrix(1.00461 0 0 1 977.091 194.996)"/><path d="M79.9147 27.1799 81.4233 27.1799 81.4233 28.3957 79.9147 28.3957Z" fill="#273777" fill-rule="nonzero" fill-opacity="1" transform="matrix(1.00461 0 0 1 977.091 195)"/><path d="M79.9608 29.2543 81.3752 29.2543 81.3752 33.9889 79.9608 33.9889Z" fill="#273777" fill-rule="nonzero" fill-opacity="1" transform="matrix(1.00461 0 0 1 977.091 195)"/><path d="M84.6453 33.1905C83.9191 33.1905 83.8428 32.6147 83.8428 32.0028L86.9444 32.0028C86.9508 31.7007 86.938 31.3985 86.9063 31.098 86.8768 30.8037 86.7965 30.5166 86.6695 30.2494 86.2683 29.4188 85.5381 29.1179 84.6513 29.1179 83.2089 29.1179 82.3783 30.2113 82.3783 31.6357 82.3783 33.2206 83.0283 34.1354 84.6513 34.1354 85.7547 34.1354 86.6695 33.7482 86.7919 32.5786L85.52 32.5786C85.3816 33.0099 85.1368 33.1905 84.6453 33.1905ZM84.6453 30.0588C85.3334 30.0588 85.4759 30.5403 85.4759 31.0619L83.8348 31.0619C83.8589 30.5403 83.9953 30.0588 84.6453 30.0588Z" fill="#273777" fill-rule="nonzero" fill-opacity="1" transform="matrix(1.00461 0 0 1 977.091 194.996)"/><path d="M0.170526 8.74901 107.285 8.74901 107.285 22.3911 0.17053 22.3911Z" stroke="#273777" stroke-width="0.341053" stroke-linecap="butt" stroke-linejoin="miter" stroke-miterlimit="3.86" stroke-opacity="1" fill="#273777" fill-rule="nonzero" fill-opacity="1" transform="matrix(1.00461 0 0 1 977.091 195)"/><path d="M9.03991 12.639C8.49222 12.2899 7.82415 12.2378 7.1922 12.2237L4.92721 12.2237 4.92721 19.0267 7.1922 19.0267C7.82415 19.0087 8.49422 18.9605 9.03991 18.6115 10.031 17.9795 10.4824 16.9142 10.4824 15.6222 10.4824 14.3302 10.031 13.2649 9.03991 12.639ZM8.9737 17.4539C8.70888 17.8411 8.20132 18.2283 7.24838 18.2283L5.87012 18.2283 5.87012 13.0302 7.24637 13.0302C8.19931 13.0302 8.70888 13.4174 8.9717 13.8046 9.33423 14.3403 9.51628 14.9778 9.4913 15.6242 9.51644 16.2697 9.33514 16.9064 8.9737 17.4418Z" fill="#FFFFFF" fill-rule="nonzero" fill-opacity="1" transform="matrix(1.00461 0 0 1 977.091 194.996)"/><path d="M13.5819 14.1517C12.0833 14.1517 11.3751 15.3113 11.3751 16.6975 11.3751 18.0838 11.977 19.1692 13.4977 19.1692 14.6292 19.1692 15.4597 18.6315 15.6002 17.5642L14.6653 17.5642C14.561 18.2523 14.2119 18.5252 13.5157 18.5252 12.6009 18.5252 12.2619 17.6665 12.3281 16.838L15.6664 16.838 15.6664 16.3866C15.6664 15.0765 14.9963 14.1798 13.5819 14.1517ZM12.3281 16.208C12.3281 15.4356 12.7714 14.8037 13.5157 14.8037 14.3824 14.8037 14.7415 15.4176 14.7194 16.208Z" fill="#FFFFFF" fill-rule="nonzero" fill-opacity="1" transform="matrix(1.00461 0 0 1 977.091 194.996)"/><path d="M20.1703 16.7256C20.1713 17.104 20.1109 17.48 19.9917 17.8391 19.811 18.2602 19.3926 18.5293 18.9345 18.5192 18.0758 18.5192 17.8872 17.9173 17.8872 17.0948L17.8872 14.2861 16.9925 14.2861 16.9925 17.4539C16.9925 18.4068 17.5582 19.1611 18.5493 19.1611 19.2093 19.1611 19.8132 18.9164 20.1703 18.3226L20.1883 18.3226 20.1883 19.0207 21.065 19.0207 21.065 14.2921 20.1703 14.2921Z" fill="#FFFFFF" fill-rule="nonzero" fill-opacity="1" transform="matrix(1.00461 0 0 1 977.091 194.996)"/><path d="M23.6931 13.0001 22.7964 13.283 22.7964 14.2861 21.9939 14.258 21.9939 14.9281 22.7964 14.9281 22.7964 17.9374C22.7964 18.5693 22.8445 18.5874 22.997 18.8141 23.1284 18.9793 23.3164 19.0901 23.5246 19.125 23.7234 19.1591 23.9249 19.1746 24.1265 19.1712 24.3271 19.1712 24.5277 19.125 24.7384 19.115L24.7384 18.4229C24.5841 18.4602 24.4258 18.479 24.2669 18.479 23.9459 18.479 23.6831 18.3185 23.6831 17.9795L23.6831 14.9241 24.7765 14.9241 24.7765 14.264 23.6831 14.2921Z" fill="#FFFFFF" fill-rule="nonzero" fill-opacity="1" transform="matrix(1.00461 0 0 1 977.091 194.996)"/><path d="M27.6313 16.2261C27.2922 16.1218 26.4817 16.0837 26.4817 15.556 26.4817 15.0284 26.8689 14.8017 27.3484 14.8017 27.868 14.8017 28.3295 15.0023 28.2913 15.6042L29.2342 15.6042C29.3005 14.5288 28.2913 14.1517 27.3946 14.1517 26.5359 14.1517 25.5368 14.5951 25.5368 15.5861 25.5368 17.4338 28.4137 16.6414 28.4137 17.6986 28.4137 18.3125 27.8761 18.5192 27.3484 18.5192 26.8208 18.5192 26.4055 18.2082 26.3875 17.6224L25.4445 17.6224C25.4445 18.7158 26.2651 19.1692 27.2501 19.1692 28.2352 19.1692 29.3526 18.8101 29.3526 17.6505 29.3586 16.5852 28.4338 16.4909 27.6313 16.2261Z" fill="#FFFFFF" fill-rule="nonzero" fill-opacity="1" transform="matrix(1.00461 0 0 1 977.091 194.996)"/><path d="M32.2516 18.5172C31.3929 18.5172 31.0639 17.7729 31.0639 16.6594 31.0639 15.546 31.3949 14.8017 32.2516 14.8017 32.8935 14.8017 33.1764 15.217 33.2226 15.8048L34.1193 15.8048C34.0712 14.7776 33.3168 14.1457 32.3138 14.1457 30.8151 14.1457 30.1069 15.3052 30.1069 16.6915 30.1069 18.0778 30.7088 19.1632 32.2295 19.1632 33.2767 19.1632 34.0692 18.5131 34.1434 17.4479L33.2486 17.4479C33.2145 18.132 32.8474 18.5172 32.2516 18.5172Z" fill="#FFFFFF" fill-rule="nonzero" fill-opacity="1" transform="matrix(1.00461 0 0 1 977.091 194.996)"/><path d="M37.7686 14.1517C37.0805 14.1517 36.5649 14.3964 36.2318 14.9261L36.2118 14.9261 36.2118 12.2177 35.309 12.2177 35.309 19.0267 36.2038 19.0267 36.2038 16.5932C36.1642 16.222 36.2158 15.8466 36.3542 15.4998 36.5745 15.1049 36.9874 14.8561 37.4396 14.8458 38.2782 14.8639 38.4948 15.4015 38.4948 16.2321L38.4948 19.0408 39.3916 19.0408 39.3916 15.8309C39.3916 14.9722 39.0044 14.1517 37.7686 14.1517Z" fill="#FFFFFF" fill-rule="nonzero" fill-opacity="1" transform="matrix(1.00461 0 0 1 977.091 194.996)"/><path d="M42.9044 14.1517C41.4058 14.1517 40.6976 15.3113 40.6976 16.6975 40.6976 18.0838 41.2995 19.1692 42.8202 19.1692 43.9517 19.1692 44.7822 18.6315 44.9227 17.5642L43.9798 17.5642C43.8754 18.2523 43.5264 18.5252 42.8282 18.5252 41.9134 18.5252 41.5743 17.6665 41.6405 16.838L44.9788 16.838 44.9788 16.3866C44.9889 15.0765 44.3188 14.1798 42.9044 14.1517ZM41.6506 16.208C41.6506 15.4356 42.0939 14.8037 42.8382 14.8037 43.7069 14.8037 44.064 15.4176 44.042 16.208Z" fill="#FFFFFF" fill-rule="nonzero" fill-opacity="1" transform="matrix(1.00461 0 0 1 977.091 194.996)"/><path d="M52.0828 16.2161 53.6296 16.2161 53.6296 18.14C53.191 18.283 52.7326 18.3561 52.2714 18.3567 50.3193 18.3185 49.7917 17.3656 49.7155 15.6222 49.6774 14.3483 50.2812 12.8878 51.9504 12.8878 52.6766 12.8878 53.3828 13.1045 53.5553 13.915L54.5464 13.915C54.4902 12.6049 53.2163 12.0753 52.0667 12.0753 50.9172 12.0753 49.9081 12.4906 49.3122 13.5278 48.9453 14.1661 48.7439 14.8861 48.7264 15.6222 48.7264 16.5832 48.9912 17.7247 49.7456 18.3848 50.4999 19.0448 51.2723 19.1672 52.2352 19.1672 53.0303 19.148 53.8183 19.0129 54.5745 18.7659L54.5745 15.4056 52.0828 15.4056Z" fill="#FFFFFF" fill-rule="nonzero" fill-opacity="1" transform="matrix(1.00461 0 0 1 977.091 194.996)"/><path d="M58.0953 14.1517C56.5967 14.1517 55.8885 15.3113 55.8885 16.6975 55.8885 18.0838 56.4904 19.1692 58.0111 19.1692 59.1426 19.1692 59.9731 18.6315 60.1136 17.5642L59.1827 17.5642C59.0784 18.2523 58.7293 18.5252 58.0331 18.5252 57.1183 18.5252 56.7793 17.6665 56.8455 16.838L60.1858 16.838 60.1858 16.3866C60.1858 15.0765 59.5117 14.1798 58.0953 14.1517ZM56.8415 16.208C56.8415 15.4356 57.2848 14.8037 58.0291 14.8037 58.8978 14.8037 59.2549 15.4176 59.2329 16.208Z" fill="#FFFFFF" fill-rule="nonzero" fill-opacity="1" transform="matrix(1.00461 0 0 1 977.091 194.996)"/><path d="M63.2513 16.2261C62.9122 16.1218 62.1017 16.0837 62.1017 15.556 62.1017 15.0284 62.4889 14.8017 62.9684 14.8017 63.488 14.8017 63.9494 15.0023 63.9113 15.6042L64.8542 15.6042C64.9204 14.5288 63.9113 14.1517 63.0145 14.1517 62.1559 14.1517 61.1568 14.5951 61.1568 15.5861 61.1568 17.4338 64.0337 16.6414 64.0337 17.6986 64.0337 18.3125 63.496 18.5192 62.9684 18.5192 62.4408 18.5192 62.0255 18.2082 62.0054 17.6224L61.0625 17.6224C61.0625 18.7158 61.883 19.1692 62.8681 19.1692 63.8531 19.1692 64.9706 18.8101 64.9706 17.6505 64.9766 16.5852 64.0537 16.4909 63.2513 16.2261Z" fill="#FFFFFF" fill-rule="nonzero" fill-opacity="1" transform="matrix(1.00461 0 0 1 977.091 194.996)"/><path d="M68.0501 14.1517C66.5514 14.1517 65.8433 15.3113 65.8433 16.6975 65.8433 18.0838 66.4451 19.1692 67.9658 19.1692 69.0973 19.1692 69.9279 18.6315 70.0683 17.5642L69.1254 17.5642C69.0211 18.2523 68.672 18.5252 67.9738 18.5252 67.059 18.5252 66.72 17.6665 66.7862 16.838L70.1245 16.838 70.1245 16.3866C70.1345 15.0765 69.4664 14.1798 68.0501 14.1517ZM66.8062 16.208C66.8062 15.4356 67.2496 14.8037 67.9939 14.8037 68.8606 14.8037 69.2197 15.4176 69.1976 16.208Z" fill="#FFFFFF" fill-rule="nonzero" fill-opacity="1" transform="matrix(1.00461 0 0 1 977.091 194.996)"/><path d="M71.4807 12.2137 72.3774 12.2137 72.3774 19.0227 71.4807 19.0227Z" fill="#FFFFFF" fill-rule="nonzero" fill-opacity="1" transform="matrix(1.00461 0 0 1 977.091 195)"/><path d="M74.0987 12.2137 74.9955 12.2137 74.9955 19.0227 74.0987 19.0227Z" fill="#FFFFFF" fill-rule="nonzero" fill-opacity="1" transform="matrix(1.00461 0 0 1 977.091 195)"/><path d="M78.4422 16.2261C78.1031 16.1218 77.2926 16.0837 77.2926 15.556 77.2926 15.0284 77.6798 14.8017 78.1593 14.8017 78.6789 14.8017 79.1403 15.0023 79.1022 15.6042L80.0471 15.6042C80.1133 14.5288 79.1042 14.1517 78.2074 14.1517 77.3488 14.1517 76.3497 14.5951 76.3497 15.5861 76.3497 17.4338 79.2266 16.6414 79.2266 17.6986 79.2266 18.3125 78.6889 18.5192 78.1613 18.5192 77.6337 18.5192 77.2184 18.2082 77.2003 17.6224L76.2574 17.6224C76.2574 18.7158 77.0779 19.1692 78.063 19.1692 79.048 19.1692 80.1675 18.8101 80.1675 17.6545 80.1675 16.5852 79.2446 16.4909 78.4422 16.2261Z" fill="#FFFFFF" fill-rule="nonzero" fill-opacity="1" transform="matrix(1.00461 0 0 1 977.091 194.996)"/><path d="M83.0564 18.5172C82.1977 18.5172 81.8687 17.7729 81.8687 16.6594 81.8687 15.546 82.1977 14.8017 83.0564 14.8017 83.6984 14.8017 83.9812 15.217 84.0274 15.8048L84.9242 15.8048C84.876 14.7776 84.1217 14.1457 83.1186 14.1457 81.62 14.1457 80.9118 15.3052 80.9118 16.6915 80.9118 18.0778 81.5136 19.1632 83.0343 19.1632 84.0816 19.1632 84.874 18.5131 84.9482 17.4479L84.0515 17.4479C84.0254 18.132 83.6582 18.5172 83.0564 18.5172Z" fill="#FFFFFF" fill-rule="nonzero" fill-opacity="1" transform="matrix(1.00461 0 0 1 977.091 194.996)"/><path d="M88.5794 14.1517C87.8913 14.1517 87.3757 14.3964 87.0427 14.9261L87.0246 14.9261 87.0246 12.2177 86.1299 12.2177 86.1299 19.0267 87.0246 19.0267 87.0246 16.5932C86.9851 16.222 87.0369 15.8467 87.1751 15.4998 87.3932 15.1085 87.8006 14.8603 88.2484 14.8458 89.087 14.8639 89.3037 15.4015 89.3037 16.2321L89.3037 19.0408 90.2004 19.0408 90.2004 15.8309C90.2025 14.9722 89.8153 14.1517 88.5794 14.1517Z" fill="#FFFFFF" fill-rule="nonzero" fill-opacity="1" transform="matrix(1.00461 0 0 1 977.091 194.996)"/><path d="M95.5449 15.7647C95.5449 14.4446 94.584 14.1597 93.611 14.1597 92.6781 14.1597 91.8656 14.5268 91.8194 15.564L92.7624 15.564C92.7624 15.0745 93.1957 14.8097 93.6491 14.8097 94.602 14.8097 94.6522 15.2912 94.6522 16.1117L93.8497 16.1117C92.7262 16.1117 91.5486 16.4989 91.5486 17.829 91.5486 18.7539 92.3792 19.1772 93.1997 19.1772 93.8497 19.1772 94.3793 18.9224 94.6702 18.3286L94.6883 18.3286C94.6883 18.5452 94.7164 18.7539 94.7365 18.9706 94.7365 19.0829 94.907 19.0368 94.9912 19.0368L95.5931 19.0368C95.565 18.6355 95.555 18.2443 95.555 18.0337ZM93.4144 18.5172C92.8867 18.5172 92.4815 18.2243 92.4815 17.6405 92.4815 16.9523 93.2077 16.7537 93.7554 16.7256L94.6522 16.7256C94.6682 17.6023 94.4696 18.5172 93.4144 18.5172Z" fill="#FFFFFF" fill-rule="nonzero" fill-opacity="1" transform="matrix(1.00461 0 0 1 977.091 194.996)"/><path d="M97.3525 13.3873 97.3525 14.2921 96.4277 14.2921 96.4277 14.914 97.3525 14.914 97.3525 19.0267 98.2493 19.0267 98.2493 14.916 99.3427 14.916 99.3427 14.2941 98.2493 14.2941 98.2493 13.5378C98.2212 13.0202 98.5141 12.8878 99.0217 12.8878 99.1721 12.8878 99.3226 12.9058 99.4751 12.9159L99.4751 12.1716C99.2642 12.1217 99.0494 12.0902 98.8331 12.0773 98.163 12.0773 97.3806 12.3501 97.3525 13.3873Z" fill="#FFFFFF" fill-rule="nonzero" fill-opacity="1" transform="matrix(1.00461 0 0 1 977.091 194.996)"/><path d="M102.3 14.9341 102.3 14.264 101.206 14.2921 101.206 13.0001 100.31 13.285 100.31 14.2881 99.5072 14.26 99.5072 14.9301 100.31 14.9301 100.31 17.9394C100.31 18.5713 100.358 18.5894 100.51 18.8161 100.642 18.9814 100.83 19.0921 101.038 19.127 101.237 19.1611 101.438 19.1766 101.64 19.1732 101.84 19.1732 102.041 19.127 102.252 19.117L102.252 18.4229C102.097 18.4602 101.939 18.479 101.78 18.479 101.459 18.479 101.196 18.3185 101.196 17.9795L101.196 14.9241Z" fill="#FFFFFF" fill-rule="nonzero" fill-opacity="1" transform="matrix(1.00461 0 0 1 977.091 194.996)"/><path d="M156.064 19.127C156.055 18.7594 156.021 18.3928 155.963 18.0297 155.879 17.3755 155.728 16.7316 155.514 16.1077 155.3 15.4972 155.041 14.9037 154.738 14.3322 154.519 13.9109 154.274 13.5037 154.019 13.1024 153.445 12.2103 152.813 11.3566 152.128 10.5466 151.712 10.0504 151.282 9.56753 150.84 9.09809 150.39 8.62462 149.925 8.16521 149.435 7.72786 149.235 7.54529 149.034 7.35671 148.823 7.18819 148.345 6.79903 147.84 6.44373 147.313 6.12491 146.787 5.81997 146.255 5.52305 145.708 5.24018 145.307 5.03956 144.875 4.86301 144.458 4.67443 143.828 4.38955 143.182 4.14479 142.54 3.89201 142.209 3.76161 141.868 3.65528 141.537 3.52288 140.724 3.17665 139.864 2.9548 138.985 2.86484 138.497 2.81421 138.005 2.84813 137.529 2.96515 136.668 3.19587 136.341 3.74957 136.485 4.55205 136.627 5.20984 136.952 5.81383 137.424 6.29343 137.706 6.61741 138.008 6.92424 138.327 7.21226 138.662 7.50517 138.983 7.81412 139.31 8.12308 139.824 8.60055 140.345 9.07201 140.839 9.57355 141.136 9.87448 141.441 10.1674 141.756 10.4523 141.878 10.5626 141.994 10.681 142.121 10.7853 142.749 11.3109 143.338 11.8747 143.94 12.4284 144.223 12.6892 144.478 12.9761 144.769 13.2308 145.066 13.5156 145.339 13.8235 145.587 14.1517 145.841 14.4702 146.073 14.8053 146.282 15.1548 146.644 15.7322 146.975 16.3289 147.273 16.9423 147.565 17.5373 147.804 18.157 147.987 18.794 148.196 19.5298 148.314 20.2884 148.338 21.053 148.341 21.3884 148.319 21.7237 148.274 22.0561 148.22 22.5633 148.133 23.0666 148.015 23.5627 147.795 24.4902 147.513 25.4016 147.17 26.2912 146.836 27.2363 146.444 28.1595 145.995 29.0557 145.656 29.7224 145.247 30.3513 144.775 30.9315 144.414 31.3628 144.075 31.8182 143.714 32.2536 143.304 32.7684 142.867 33.2613 142.406 33.7301L140.399 35.6982C140.341 35.7564 140.285 35.8186 140.223 35.8707 139.798 36.2198 139.43 36.6271 139.037 37.0082 138.72 37.3172 138.435 37.6683 138.14 37.9973 137.965 38.1889 137.799 38.3899 137.645 38.5992 137.293 39.0319 137.146 39.5964 137.244 40.1459 137.35 40.7065 137.57 41.2393 137.892 41.7108 138.229 42.2203 138.885 42.4133 139.444 42.1682 139.926 41.9597 140.395 41.7226 140.849 41.458 141.539 41.0782 142.233 40.7063 142.931 40.3425 143.583 40.0035 144.227 39.6484 144.885 39.3194 145.329 39.0967 145.76 38.8459 146.185 38.5911 146.906 38.1618 147.624 37.7285 148.304 37.2369 148.937 36.8018 149.531 36.3125 150.079 35.7744 150.238 35.6119 150.386 35.4354 150.547 35.2749 150.949 34.8678 151.322 34.4327 151.662 33.9729 152.092 33.4031 152.499 32.8133 152.866 32.2014 153.4 31.3095 153.863 30.377 154.252 29.4128 154.595 28.5638 154.88 27.6923 155.105 26.8047 155.305 26.0284 155.506 25.2459 155.642 24.4555 155.755 23.8356 155.857 23.2177 155.925 22.5917 155.998 22.0535 156.041 21.5116 156.056 20.9687 156.056 20.9286 156.028 20.8744 156.088 20.8484L156.088 19.1953C156.062 19.1852 156.064 19.1551 156.064 19.127Z" fill="#273777" fill-rule="nonzero" fill-opacity="1" transform="matrix(1.00461 0 0 1 977.091 194.996)"/><path d="M124.402 32.8655C123.803 31.949 123.256 30.9999 122.763 30.0227 122.455 29.415 122.184 28.7901 121.948 28.1509 121.689 27.4098 121.467 26.6557 121.284 25.8919 121.17 25.4084 121.044 24.929 120.949 24.4415 120.873 24.0402 120.809 23.639 120.735 23.2518 120.655 22.8257 120.604 22.3947 120.582 21.9618 120.545 21.2239 120.587 20.484 120.707 19.755 120.816 19.0827 120.967 18.418 121.16 17.7648 121.457 16.7305 121.907 15.7465 122.496 14.8458 122.765 14.4446 123.024 14.0293 123.283 13.618 123.483 13.291 123.684 12.962 123.884 12.633 124.32 11.9168 124.811 11.2287 125.174 10.4763 125.476 9.9259 125.59 9.29174 125.497 8.67077 125.47 8.42938 125.342 8.21085 125.144 8.06891 124.838 7.87407 124.463 7.82209 124.115 7.92647 123.709 8.04273 123.326 8.22505 122.98 8.46614 122.339 8.83666 121.732 9.26153 121.164 9.73605 120.709 10.1204 120.305 10.5605 119.96 11.0461 119.427 11.8432 118.958 12.681 118.556 13.5518 118.408 13.8708 118.239 14.1818 118.115 14.5108 117.868 15.1548 117.631 15.8028 117.451 16.4708 117.213 17.3088 117.078 18.1724 117.049 19.0428 117.049 19.0949 117.083 19.1571 117.017 19.1973L117.017 21.065C117.027 21.0771 117.047 21.0871 117.047 21.0991 117.047 21.5265 117.087 21.9518 117.12 22.3751 117.14 22.6399 117.182 22.9027 117.2 23.1775 117.226 23.5507 117.324 23.9198 117.358 24.293 117.394 24.6942 117.477 25.0955 117.547 25.4967 117.67 26.1774 117.814 26.8543 117.978 27.527 118.164 28.2959 118.391 29.0541 118.66 29.798 118.912 30.5134 119.216 31.2093 119.569 31.8804 119.784 32.2817 119.988 32.6829 120.233 33.0641 120.659 33.6952 121.139 34.288 121.668 34.8355 122.037 35.2368 122.422 35.6159 122.829 35.9791 123.379 36.4686 123.906 36.9822 124.434 37.4837 124.593 37.6322 124.743 37.7866 124.912 37.9231 125.225 38.1758 125.489 38.2079 125.694 37.8348 125.93 37.3543 126.043 36.8231 126.025 36.288 126.014 35.8394 125.89 35.4007 125.666 35.0121 125.269 34.2598 124.839 33.5596 124.402 32.8655Z" fill="#273777" fill-rule="nonzero" fill-opacity="1" transform="matrix(1.00461 0 0 1 977.091 194.996)"/><path d="M131.668 46.004 133.392 46.004 133.392 0 131.668 0Z" fill="#273777" fill-rule="nonzero" fill-opacity="1" transform="matrix(1.00461 0 0 1 977.091 194.996)"/></g></g></g></g></g></svg>