<svg width="90" height="79" xmlns="http://www.w3.org/2000/svg" xmlns:xlink="http://www.w3.org/1999/xlink" xml:space="preserve" overflow="hidden"><defs><clipPath id="clip0"><rect x="772" y="9" width="90" height="79"/></clipPath><clipPath id="clip1"><rect x="772" y="9" width="90" height="79"/></clipPath><clipPath id="clip2"><rect x="773" y="10" width="89" height="78"/></clipPath><clipPath id="clip3"><rect x="773" y="10" width="89" height="78"/></clipPath><clipPath id="clip4"><rect x="773" y="10" width="89" height="78"/></clipPath></defs><g clip-path="url(#clip0)" transform="translate(-772 -9)"><g clip-path="url(#clip1)"><g clip-path="url(#clip2)"><g clip-path="url(#clip3)"><g clip-path="url(#clip4)"><path d="M22.253 1.38761 22.253 1.46963 22.0889 1.46963 22.0889 1.38761Z" fill="#E3E4E4" fill-rule="nonzero" fill-opacity="1" transform="matrix(1.00059 0 0 1 772.747 10)"/><path d="M21.8531 47.8486C21.1081 49.2977 17.8885 53.1153 17.5092 53.6587 17.0683 54.1167 13.4625 58.0266 10.431 60.2243 10.1747 60.4122 9.11173 61.024 8.72211 61.2496 7.54815 61.9113 6.29373 62.4191 4.98992 62.7602 4.49548 62.8426 3.99081 62.8426 3.49636 62.7602 3.15332 62.6625 2.82294 62.5251 2.51205 62.3501 2.01754 62.0821 1.59085 61.7045 1.26457 61.2462 0.900742 60.5431 0.648242 59.7882 0.516081 59.0075 0.242661 57.2474 0.307598 54.2227 0.601525 51.8884 0.977478 48.8671 1.81825 45.1315 3.5032 39.5844 4.02611 37.8756 5.25651 34.8406 5.48891 34.3348 7.53957 29.9156 8.61616 28.4494 10.9573 25.4008 11.9385 24.1273 13.0345 22.9467 14.2315 21.8736 14.6758 21.4259 15.1441 20.903 14.7032 20.3972 13.9615 19.553 12.5466 19.7683 10.2225 19.4504 7.83008 19.1087 6.40487 17.1811 6.40487 16.084 6.4504 15.1573 6.73667 14.2585 7.23539 13.4762 7.68821 12.7009 8.18692 11.9534 8.72895 11.2376 9.44667 10.2498 10.9437 8.32223 11.7537 7.41311 13.0763 5.9093 15.5337 3.38016 17.2597 2.35142 18.2655 1.74712 19.3141 1.2171 20.3972 0.765577 21.4622 0.447514 22.5499 0.211006 23.6509 0.0581018 24.9143-0.0737835 26.1914 0.0423142 27.4104 0.399877 27.9777 0.575109 28.527 0.803993 29.0509 1.08343 29.5753 1.35157 30.0215 1.75068 30.3462 2.24205 30.669 2.71351 30.9319 3.22324 31.1289 3.75953 31.4157 4.49278 31.6655 5.2399 31.8774 5.99816 31.9902 6.41854 32.2192 7.70704 32.2192 7.70704 32.3402 8.25897 32.4236 8.81849 32.4687 9.38174 32.4687 10.7728 32.1782 11.8391 31.2383 12.779 30.6675 13.3498 29.6832 14.0436 28.528 13.8624 27.9675 13.777 27.0447 13.1481 26.9729 12.2185 26.8738 10.9744 27.8274 6.53816 26.491 5.52309 25.0556 4.42941 23.0733 5.68714 21.7608 6.39804 20.3561 7.15336 17.5946 8.83148 16.4565 9.94225 15.749 10.6258 14.317 12.0578 14.8262 13.5446 15.4209 15.2808 18.7977 14.4161 20.134 14.6963 21.4088 14.9561 22.0001 15.6943 22.1846 16.3232 22.8169 18.4627 21.4327 20.1272 20.6364 21.1081 19.2385 22.8169 16.2275 26.1048 14.9219 27.8991 13.6984 29.5807 11.429 33.0804 10.5198 34.9465 9.61073 36.8126 8.32223 40.7567 7.71387 42.7288 7.08842 44.7794 6.13145 48.3646 5.57094 50.7229 5.28727 51.9191 4.73701 54.3594 5.22917 55.8803 5.59486 57.0082 6.98589 56.2597 7.51222 55.9726 8.19578 55.5932 13.5958 51.5637 14.2623 51.1194 15.1167 50.5144 16.0361 49.7181 17.1264 48.9115 18.2154 48.028 19.3567 47.2108 20.5441 46.4644 21.2653 45.9585 22.5948 46.4883 21.8702 47.8691Z" fill="#C6C7C8" fill-rule="nonzero" fill-opacity="1" transform="matrix(1.00059 0 0 1 772.747 10)"/><path d="M32.332 67.6715 32.332 68.6695 33.952 68.6695 33.952 72.6751C33.9414 73.0313 33.9887 73.3867 34.0921 73.7278 34.173 73.9582 34.2996 74.1697 34.4646 74.3498 34.87 74.7473 35.422 74.9589 35.989 74.9343 36.3946 74.9175 36.7983 74.8663 37.1954 74.7805L37.1954 73.6731C36.9384 73.7733 36.6674 73.8331 36.3923 73.8508 35.9363 73.8768 35.5183 73.5979 35.3669 73.1673 35.3143 72.9848 35.2767 72.7985 35.2541 72.6102L35.2541 68.6593 37.1407 68.6593 37.1407 67.6715 35.2541 67.6715 35.2541 65.5936 33.952 66.0208 33.952 67.6715ZM39.6084 64.5375 39.6084 65.9524 41.0336 65.9524 41.0336 64.5272ZM39.6904 67.6442 39.6904 74.8215 40.9925 74.8215 40.9925 67.6442ZM43.1833 67.6715 43.1833 68.6969 44.8614 68.6969 44.8614 74.8078 46.1636 74.8078 46.1636 68.6729 48.0331 68.6729 48.0331 67.6476 46.1397 67.6476C46.1397 66.4001 46.1944 65.7473 46.7891 65.4568 46.9774 65.3734 47.1814 65.3317 47.3872 65.3338 47.5967 65.342 47.8048 65.3693 48.0092 65.4158L48.0912 64.2948C47.7929 64.2603 47.4928 64.2408 47.1924 64.2367 46.8226 64.222 46.4538 64.2835 46.1089 64.4178 45.5279 64.64 45.0016 65.0843 44.8785 66.4685 44.8416 66.865 44.8266 67.2631 44.8341 67.6613ZM49.4754 67.6715 49.4754 68.6695 51.0954 68.6695 51.0954 72.6751C51.0848 73.0313 51.1323 73.3867 51.2356 73.7278 51.3152 73.9588 51.442 74.1707 51.6081 74.3498 52.0134 74.7473 52.5654 74.9589 53.1324 74.9343 53.5381 74.9179 53.9417 74.8663 54.3389 74.7805L54.3389 73.6731C54.0819 73.7733 53.8108 73.8331 53.5357 73.8508 53.0798 73.8768 52.6618 73.5979 52.5104 73.1673 52.456 72.9855 52.4184 72.7989 52.3976 72.6102L52.3976 68.6593 54.2842 68.6593 54.2842 67.6715 52.3976 67.6715 52.3976 65.5936 51.0954 66.0208 51.0954 67.6715ZM56.7928 67.6715 56.7928 72.036C56.8475 72.8665 56.9022 73.5193 57.4764 74.1277 57.9761 74.6424 58.6596 74.9373 59.3767 74.9479 60.0623 74.9421 60.7263 74.7077 61.2633 74.2815 61.482 74.0867 61.7315 73.7825 61.7759 73.7415L61.8306 74.8078 63.02 74.8078 63.02 67.6476 61.7041 67.6476 61.6495 71.5131C61.6262 72.0934 61.4287 72.6533 61.0821 73.1194 60.7434 73.5484 60.2277 73.7999 59.6808 73.803 59.0766 73.8252 58.5212 73.4732 58.283 72.9178 58.1962 72.71 58.1442 72.4896 58.1292 72.265L58.1292 67.6715ZM67.2409 67.6442 65.9934 67.6442 65.9934 74.7941 67.3298 74.7941 67.3298 71.4003C67.3298 70.7168 67.3708 70.0947 67.757 69.5274 68.1012 68.9884 68.687 68.6518 69.3257 68.6251 69.5923 68.6244 69.8545 68.6914 70.0879 68.8199 70.7715 69.1822 70.833 69.9717 70.8774 70.187L70.9184 74.801 72.2206 74.801 72.2206 70.9047C72.2206 70.0708 72.2206 69.336 71.7626 68.6148 71.3115 67.9057 70.525 67.4812 69.6846 67.4938 68.9966 67.4925 68.3264 67.7105 67.7707 68.1159 67.5796 68.2813 67.4036 68.4631 67.2443 68.6593L67.2443 67.6339ZM80.3651 68.7379C80.2154 68.5062 80.0336 68.2967 79.8251 68.1159 79.281 67.7003 78.6128 67.4798 77.9282 67.4904 77.2853 67.486 76.6582 67.6897 76.1407 68.0714 76.0006 68.1842 75.8195 68.3517 75.6964 68.4747 75.0416 69.2608 74.7094 70.266 74.7668 71.2875 74.7668 73.2015 75.529 74.0217 76.2364 74.449 77.3236 75.1253 78.7133 75.0696 79.7431 74.3088 79.9348 74.1554 80.1111 73.9838 80.2694 73.7962 80.3104 74.6267 80.3514 75.4469 79.8251 76.1544 79.4833 76.6226 79.0356 76.8858 77.9009 76.8995 77.1934 76.8995 76.7354 76.7764 75.4469 76.2638L75.3068 77.4976C76.1701 77.8113 77.0782 77.9843 77.9966 78.0103 78.9672 78.0103 80.2694 77.7334 80.8914 76.9439 81.1139 76.6278 81.292 76.2829 81.4212 75.9186 81.48 75.6718 81.5254 75.422 81.5579 75.1701 81.6126 74.6438 81.5989 74.0046 81.6126 72.8392 81.6126 71.1098 81.6126 69.3633 81.6126 67.6305L80.3651 67.6305 80.3651 68.7379ZM76.1681 71.2192C76.1681 70.8569 76.1681 69.7085 77.108 68.9874 77.4067 68.7331 77.7854 68.5916 78.1777 68.5875 79.0981 68.6042 79.8979 69.2246 80.1429 70.1118 80.2571 70.4796 80.3179 70.8617 80.3241 71.2465 80.3788 72.2281 79.8606 73.1529 78.9946 73.6184 78.7471 73.7336 78.4778 73.7944 78.2051 73.7962 77.8465 73.7979 77.4931 73.7073 77.1797 73.533 76.3902 73.075 76.1544 72.1488 76.1544 71.2192Z" fill="#87888A" fill-rule="nonzero" fill-opacity="1" transform="matrix(1.00059 0 0 1 772.747 10)"/><path d="M29.96 65.1937C29.1998 64.9691 28.4115 64.8543 27.6189 64.8519 27.2771 64.8519 25.9715 64.8246 25.0282 65.6824 24.4669 66.2139 24.1597 66.9603 24.184 67.7331 24.184 68.8438 24.7104 69.5616 25.6503 70.0776 26.1283 70.3159 26.6189 70.5281 27.1199 70.7133 27.8547 71.0175 28.1726 71.1713 28.3674 71.5302 28.4663 71.6932 28.5194 71.8795 28.5212 72.0702 28.5212 72.2708 28.4682 72.4677 28.3674 72.641 27.9504 73.3758 27.0003 73.3621 26.802 73.3621 26.217 73.3471 25.6389 73.2316 25.0932 73.0203 24.9118 72.9451 24.7359 72.857 24.5668 72.7572L24.3994 74.531C25.2285 74.7928 26.0932 74.9244 26.9627 74.9206 27.4877 74.9305 28.0114 74.8649 28.5177 74.7258 29.7502 74.3645 30.5895 73.2244 30.5684 71.9403 30.5866 70.8449 29.9393 69.8476 28.9313 69.418 28.5139 69.2106 28.0835 69.0301 27.6428 68.878 27.2656 68.7567 26.9069 68.5841 26.5765 68.3653 26.1754 68.0379 26.0699 67.4682 26.327 67.0188 26.7029 66.3352 27.7829 66.3694 27.865 66.3694 28.3699 66.369 28.8712 66.4535 29.3483 66.6189 29.4884 66.6736 29.6251 66.7419 29.7652 66.7966L29.9429 65.1766Z" fill="#004B93" fill-rule="nonzero" fill-opacity="1" transform="matrix(1.00059 0 0 1 772.747 10)"/><path d="M33.7298 52.0763 32.4687 52.0763C32.4687 52.4181 32.496 52.7599 32.5131 53.1017 32.5541 54.1953 32.5131 55.2788 32.5131 56.3724L32.5131 59.1989 33.8563 59.1989 33.8563 55.7333C33.8533 55.1133 34.0213 54.5043 34.3416 53.9732 34.6591 53.4786 35.1967 53.1693 35.7839 53.1427 36.0894 53.1574 36.3916 53.2127 36.6828 53.3067L36.6828 52.049C36.3923 52.0216 36.0881 51.9772 35.8112 51.9772 35.179 51.9437 34.5692 52.2171 34.1741 52.712 34.028 52.8877 33.8933 53.0726 33.7708 53.2657L33.7025 52.0763ZM44.6222 55.9965C44.6249 55.4227 44.5699 54.8502 44.4582 54.2876 44.3607 53.8857 44.1919 53.505 43.9592 53.1632 43.6034 52.617 43.0538 52.226 42.4212 52.0695 42.1259 51.997 41.8231 51.9591 41.5189 51.9567 41.0496 51.9461 40.5834 52.036 40.1518 52.2199 39.7297 52.4085 39.3551 52.6888 39.0547 53.0401 38.448 53.7449 38.1189 54.6465 38.1285 55.5761 38.1104 56.7193 38.5847 57.8147 39.4306 58.5837 40.0855 59.0988 40.8979 59.3726 41.7308 59.3596 42.3802 59.3596 42.8518 59.2639 44.0446 58.8742L44.0446 57.6268C43.3997 58.0065 42.6731 58.2256 41.9256 58.2659 41.0828 58.2949 40.2868 57.8783 39.8305 57.1688 39.6607 56.7976 39.5356 56.4076 39.458 56.0067L44.6256 56.0067ZM39.4546 54.9712C39.5547 54.4578 39.7721 53.9749 40.0903 53.5596 40.4406 53.1721 40.9351 52.9458 41.4574 52.9342 41.78 52.9356 42.0961 53.0265 42.3699 53.1973 43.0535 53.6143 43.1628 54.2227 43.2859 54.9712ZM50.9861 52.1994C50.4191 52.0244 49.8322 51.9222 49.2396 51.8952 48.3783 51.8952 47.4795 52.237 47.0762 52.9479 46.9155 53.2408 46.8342 53.5706 46.8403 53.9048 46.8253 54.3768 46.9887 54.8369 47.2983 55.1933 47.5198 55.4032 47.7669 55.5847 48.0331 55.7333 48.3236 55.9008 48.6141 56.0751 48.9217 56.2323 49.1477 56.3376 49.3609 56.4685 49.5574 56.6219 49.7116 56.7932 49.8001 57.0136 49.8069 57.244 49.8069 57.6473 49.4652 58.2009 48.5458 58.2009 47.9508 58.1579 47.3728 57.9829 46.854 57.6883L46.7583 58.8811C47.395 59.1347 48.0697 59.2789 48.7543 59.3083 49.6121 59.3083 50.5281 58.9665 50.9587 58.242 51.1402 57.9159 51.2356 57.5488 51.2356 57.1756 51.2458 56.6759 51.0732 56.1899 50.7502 55.8085 50.5653 55.6376 50.361 55.4883 50.1419 55.3642 49.848 55.1967 49.5438 55.06 49.2533 54.9062 48.8226 54.6841 48.2279 54.3799 48.2279 53.8262 48.2392 53.6741 48.286 53.5265 48.3646 53.3956 48.6193 53.0866 49.0079 52.9212 49.4071 52.9513 49.9225 52.9759 50.4293 53.0914 50.904 53.293L50.9997 52.1823ZM59.8415 55.9828C59.8452 55.409 59.7892 54.8362 59.674 54.2739 59.5783 53.8717 59.4091 53.4903 59.175 53.1495 58.8192 52.6033 58.2696 52.2124 57.637 52.0558 57.3414 51.9858 57.0386 51.9502 56.7347 51.9499 56.2655 51.94 55.7996 52.0298 55.3676 52.213 54.9462 52.401 54.5723 52.6813 54.2739 53.0333 53.6652 53.737 53.3347 54.639 53.3443 55.5693 53.3272 56.7122 53.8016 57.8072 54.6465 58.5769 55.3017 59.0909 56.1137 59.365 56.9466 59.3527 57.5994 59.3527 58.0711 59.257 59.2639 58.8674L59.2639 57.6199C58.6176 57.9996 57.8899 58.2187 57.1414 58.259 56.2997 58.2871 55.5054 57.8704 55.0498 57.1619 54.8792 56.7908 54.7531 56.4008 54.6738 55.9999L59.8449 55.9999ZM54.6704 54.9575C54.7719 54.4442 54.9907 53.9609 55.3095 53.546 55.6588 53.157 56.1541 52.9304 56.6766 52.9205 57.0003 52.9222 57.3171 53.0135 57.5926 53.1837 58.2761 53.6006 58.3821 54.209 58.5085 54.9575ZM63.6249 52.0216 62.3774 52.0216 62.3774 59.1716 63.7069 59.1716 63.7069 55.7743C63.7069 55.0908 63.748 54.4722 64.1376 53.9048 64.4811 53.3669 65.0652 53.0302 65.7029 53.0025 65.9695 53.0008 66.232 53.0682 66.4651 53.1973 67.1486 53.5596 67.2136 54.3491 67.2546 54.5645L67.2956 59.1784 68.6012 59.1784 68.6012 55.2822C68.6012 54.4517 68.6012 53.7169 68.1432 52.9957 67.6917 52.2869 66.9053 51.8627 66.0652 51.8747 65.3772 51.8733 64.707 52.0914 64.1513 52.4967 63.9595 52.6611 63.7832 52.8433 63.6249 53.0401L63.6249 52.0148ZM71.4858 48.9149 71.4858 50.3299 72.9144 50.3299 72.9144 48.9422ZM71.5678 52.0216 71.5678 59.1989 72.8734 59.1989 72.8734 52.0216ZM75.8092 52.049 75.8092 56.4135C75.8639 57.244 75.922 57.8968 76.4928 58.5051 76.9911 59.0195 77.6736 59.3148 78.3896 59.3254 79.0752 59.3196 79.7393 59.0851 80.2762 58.6589 80.4567 58.4884 80.6279 58.3083 80.7889 58.1189L80.8436 59.1853 82.0364 59.1853 82.0364 52.0627 80.7274 52.0627 80.659 55.9281C80.6371 56.5088 80.4392 57.069 80.0917 57.5345 79.7547 57.9638 79.2396 58.2156 78.6938 58.218 78.0885 58.2416 77.5314 57.8896 77.2925 57.3328 77.2091 57.124 77.1575 56.9039 77.1387 56.68L77.1387 52.0661ZM88.8514 52.1857C88.2844 52.0107 87.6975 51.9085 87.1049 51.8815 86.247 51.8815 85.3448 52.2233 84.9449 52.9342 84.7842 53.2271 84.7029 53.5569 84.7091 53.8912 84.6933 54.3625 84.8557 54.8225 85.1636 55.1796 85.3851 55.3895 85.6322 55.571 85.8984 55.7197 86.1924 55.8871 86.4829 56.0614 86.787 56.2187 87.0133 56.3232 87.2269 56.4541 87.4227 56.6083 87.5783 56.7788 87.6668 56.9996 87.6722 57.2303 87.6722 57.6336 87.3305 58.1873 86.4111 58.1873 85.8171 58.1446 85.2402 57.9696 84.7227 57.6746L84.6236 58.8674C85.2603 59.121 85.935 59.2652 86.6196 59.2946 87.4809 59.2946 88.3934 58.9529 88.824 58.2283 89.0055 57.9022 89.1009 57.5352 89.1009 57.1619 89.1111 56.6623 88.9385 56.1763 88.6155 55.7948 88.4317 55.6222 88.2273 55.4732 88.0072 55.3505 87.7167 55.1831 87.4091 55.0464 87.1186 54.8926 86.6913 54.6704 86.0932 54.3662 86.0932 53.8125 86.1045 53.6598 86.1527 53.5121 86.2334 53.3819 86.4832 53.0767 86.8653 52.9113 87.2587 52.9376 87.7741 52.9619 88.2809 53.0774 88.7557 53.2794L88.8514 52.1686Z" fill="#87888A" fill-rule="nonzero" fill-opacity="1" transform="matrix(1.00059 0 0 1 772.747 10)"/><path d="M24.2831 49.4412 24.2831 59.2263 26.2791 59.2263 26.2791 55.0566 29.5772 55.0566 29.5772 53.4468 26.2791 53.4468 26.2791 51.1194 29.7174 51.1194 29.7174 49.4412 24.2831 49.4412Z" fill="#004B93" fill-rule="nonzero" fill-opacity="1" transform="matrix(1.00059 0 0 1 773.089 10)"/><path d="M35.7395 36.4914 34.492 36.4914C34.492 36.8331 34.5193 37.1749 34.5364 37.5167 34.5774 38.6104 34.5364 39.6904 34.5364 40.7875L34.5364 43.614 35.8864 43.614 35.8864 40.1484C35.8833 39.5284 36.0515 38.9193 36.3717 38.3882 36.6893 37.8937 37.2269 37.5844 37.814 37.5577 38.1199 37.5714 38.4224 37.6278 38.7129 37.7252L38.7129 36.4606C38.4224 36.4333 38.1182 36.3923 37.8414 36.3923 37.2091 36.3591 36.5997 36.6329 36.2043 37.1271 36.059 37.3027 35.9254 37.4876 35.8044 37.6807L35.7326 36.4914ZM40.4662 40.1074C40.4662 40.6063 40.5482 42.0486 41.6727 42.9783 42.3395 43.5019 43.1659 43.7804 44.0138 43.7678 44.6803 43.7678 46.5772 43.573 47.3803 41.6864 47.6056 41.1617 47.7218 40.5964 47.7221 40.0253 47.7221 39.3418 47.5683 37.5987 45.8492 36.7545 45.3105 36.4914 44.7193 36.3536 44.1198 36.3512 42.6888 36.3171 41.3811 37.1575 40.8182 38.4737 40.5947 38.9894 40.4782 39.5451 40.4765 40.1074ZM41.8812 39.9843C41.874 39.0762 42.3268 38.2262 43.0842 37.7252 43.4195 37.5215 43.8026 37.4107 44.195 37.4039 44.9982 37.4039 46.3413 38.002 46.3413 39.9399 46.3413 40.9652 45.9996 41.9085 45.1246 42.4212 44.803 42.6057 44.4394 42.7059 44.0685 42.7117 43.6875 42.7117 43.3135 42.6064 42.9885 42.4075 41.8538 41.7239 41.8538 40.3568 41.8812 39.9843ZM42.1717 34.0921 42.1717 35.3943 43.4328 35.3943 43.4328 34.0921ZM44.8033 34.0648 44.8033 35.3806 46.0372 35.3806 46.0372 34.0648ZM51.5397 36.4572 50.2923 36.4572 50.2923 43.6071 51.6081 43.6071 51.6081 40.2133C51.6081 39.5298 51.6491 38.9077 52.0387 38.3404 52.3819 37.8024 52.9667 37.4668 53.6041 37.4415 53.8703 37.4391 54.1328 37.5051 54.3662 37.6329 55.0498 37.9952 55.1147 38.7847 55.1557 39L55.2002 43.614 56.5023 43.614 56.5023 39.7348C56.5023 38.9009 56.5023 38.1661 56.0443 37.4483 55.5942 36.7378 54.8075 36.3119 53.9663 36.3239 53.278 36.3222 52.6071 36.5413 52.0524 36.9493 51.86 37.112 51.6836 37.2928 51.5261 37.4894L51.5261 36.464ZM65.5525 40.4047C65.5553 39.8309 65.5002 39.2584 65.3885 38.6958 65.2911 38.2939 65.1222 37.9132 64.8895 37.5714 64.5337 37.0252 63.9841 36.6342 63.3515 36.4777 63.0562 36.4052 62.7534 36.3673 62.4492 36.3649 61.9796 36.354 61.5131 36.4449 61.0821 36.6315 60.6597 36.8181 60.2847 37.0973 59.985 37.4483 59.3784 38.1531 59.0492 39.0547 59.0588 39.9843 59.0407 41.1276 59.5151 42.2229 60.361 42.9919 61.0161 43.5063 61.8282 43.7804 62.6611 43.7678 63.3105 43.7678 63.7821 43.6687 64.9749 43.2824L64.9749 42.0384C64.3297 42.4167 63.603 42.6348 62.8559 42.6741 62.0138 42.7038 61.2178 42.2886 60.7608 41.5804 60.5924 41.2075 60.4673 40.8165 60.3883 40.415ZM60.3849 39.3794C60.4833 38.865 60.7024 38.381 61.024 37.9678 61.3733 37.5789 61.8685 37.3523 62.3911 37.3424 62.7148 37.3441 63.0316 37.4354 63.3071 37.6056 63.9906 38.0225 64.0966 38.6309 64.2196 39.3794ZM69.271 36.4709 68.0236 36.4709C68.0236 36.8126 68.0509 37.1544 68.068 37.4962 68.109 38.5899 68.068 39.6699 68.068 40.767L68.068 43.5935 69.4112 43.5935 69.4112 40.1484C69.4081 39.5284 69.5763 38.9193 69.8965 38.3882 70.214 37.8937 70.7516 37.5844 71.3388 37.5577 71.6447 37.5714 71.9472 37.6278 72.2377 37.7252L72.2377 36.4606C71.9472 36.4333 71.643 36.3923 71.3661 36.3923 70.7339 36.3591 70.1245 36.6329 69.729 37.1271 69.5838 37.3027 69.4501 37.4876 69.3292 37.6807L69.2574 36.4914Z" fill="#87888A" fill-rule="nonzero" fill-opacity="1" transform="matrix(1.00059 0 0 1 772.747 10)"/><path d="M26.5799 33.8563 24.6249 33.8563 24.6249 43.6413 26.5799 43.6413 26.5799 38.9624 26.8704 39.376C27.0515 39.6255 27.2463 39.8749 27.4514 40.1244L30.1856 43.6447 32.7797 43.6447 28.5348 38.3609 29.5191 37.2535 32.5678 33.8563 30.1412 33.8563 27.6462 36.7682 27.0003 37.544 26.5833 38.084 26.5833 33.8563Z" fill="#004B93" fill-rule="nonzero" fill-opacity="1" transform="matrix(1.00059 0 0 1 772.747 10)"/><path d="M33.1078 17.5673 33.1078 28.0256 34.4236 28.0256 34.4236 17.5673ZM41.1874 21.0431C40.6204 20.8683 40.0335 20.7661 39.4409 20.7389 38.583 20.7389 37.6807 21.0807 37.2775 21.7916 37.1189 22.0853 37.0389 22.4149 37.045 22.7486 37.0283 23.2201 37.1906 23.6805 37.4996 24.0371 37.7224 24.2464 37.9689 24.4288 38.2344 24.5805 38.5249 24.7445 38.8189 24.9223 39.123 25.0761 39.3489 25.1815 39.5622 25.3122 39.7587 25.4657 39.9146 25.6372 40.0035 25.8594 40.0082 26.0911 40.0082 26.491 39.6665 27.0447 38.7471 27.0447 38.1531 27.0021 37.5762 26.8269 37.0587 26.532L36.9596 27.7248C37.9849 28.0666 38.4292 28.1555 38.9556 28.1555 39.8134 28.1555 40.7294 27.7932 41.16 27.0857 41.3415 26.7596 41.4369 26.3926 41.4369 26.0194 41.4471 25.5198 41.2745 25.0336 40.9515 24.6523 40.7666 24.4812 40.5623 24.3321 40.3432 24.208 40.0493 24.0405 39.7451 23.9038 39.4546 23.75 39.0239 23.5278 38.4292 23.2236 38.4292 22.67 38.4405 22.5172 38.4887 22.3695 38.5694 22.2393 38.8192 21.9342 39.2013 21.7687 39.5947 21.795 40.1091 21.8192 40.6145 21.9349 41.0882 22.1368L41.1874 21.026ZM50.0291 24.8266C50.0329 24.2527 49.9768 23.6799 49.8616 23.1177 49.7659 22.7154 49.5967 22.3342 49.3626 21.9933 49.0075 21.4466 48.4576 21.0556 47.8246 20.8996 47.5304 20.8271 47.2289 20.7893 46.9258 20.7868 46.4565 20.7771 45.9907 20.8668 45.5587 21.05 45.1373 21.2379 44.7634 21.5182 44.465 21.8702 43.8563 22.5739 43.5254 23.4758 43.5354 24.4062 43.5183 25.549 43.9927 26.6441 44.8375 27.4138 45.4937 27.9263 46.3051 28.1999 47.1377 28.1896 47.7905 28.1896 48.2621 28.0905 49.4549 27.7043L49.4549 26.45C48.8083 26.8285 48.0806 27.0465 47.3325 27.0857 46.4914 27.1144 45.6971 26.6991 45.2408 25.992 45.0699 25.6197 44.9438 25.2285 44.8649 24.8266ZM44.858 23.8012C44.9595 23.2878 45.1783 22.8047 45.4972 22.3897 45.8464 22.0008 46.3417 21.7743 46.8643 21.7643 47.1879 21.7661 47.5047 21.8572 47.7802 22.0274 48.4638 22.4444 48.5697 23.0528 48.6962 23.8012Z" fill="#87888A" fill-rule="nonzero" fill-opacity="1" transform="matrix(1.00059 0 0 1 772.747 10)"/><path d="M24.2831 18.2713 24.2831 28.0563 30.1309 28.0563 30.1309 26.409 26.2928 26.409 26.2928 23.8593 29.7721 23.8593 29.7721 22.2496 26.2928 22.2496 26.2928 19.9221 30.0899 19.9221 30.0899 18.2713 24.2831 18.2713Z" fill="#004B93" fill-rule="nonzero" fill-opacity="1" transform="matrix(1.00059 0 0 1 773.089 10)"/></g></g></g></g></g></svg>